<?xml version="1.0" encoding="UTF-8"?>
<svg xmlns="http://www.w3.org/2000/svg" width="128" height="128" viewBox="0 0 128 128">
  <defs><linearGradient id="g" x1="0" y1="0" x2="1" y2="1"><stop offset="0" stop-color="#3f7fbf"/><stop offset="0.55" stop-color="#4f9dde"/><stop offset="1" stop-color="#e2776f"/></linearGradient></defs>
  <rect x="4" y="4" width="120" height="120" rx="28" fill="url(#g)"/>
  <g fill="none" stroke="#ffffff" stroke-width="7" stroke-linecap="round" stroke-linejoin="round">
    <path d="M64 38 L57 20 M64 38 L64 16 M64 38 L71 20 M64 38 L50 23 M64 38 L78 23"/><ellipse cx="64" cy="66" rx="17" ry="24"/><path d="M54 50 l20 -13 M52 58 l22 -15 M52 66 l22 -15 M52 74 l22 -15" stroke-width="3"/><path d="M74 50 l-20 -13 M76 58 l-22 -15 M76 66 l-22 -15 M76 74 l-22 -15" stroke-width="3"/>
  </g>
</svg>
